# xmcd
#
# Track frame offsets:
#	150
#	19954
#	40031
#	61683
#	80135
#	100972
#	121539
#	142566
#	165906
#	183675
#	207222
#	228062
#	246866
#	272216
#
# Disc length: 4236 seconds
#
# Revision: 1
# Processed by: cddbd v1.5.1PL0 Copyright (c) Steve Scherf et al.
# Submitted via: CDex 1.50Beta5
#
DISCID=ac108a0e
DTITLE=Folder5 - FIVE GIRLS
DYEAR=2002
DGENRE=Pop
TTITLE0=Baby My Heart
TTITLE1=MY MIRACLE
TTITLE2=Still reminds me of you
TTITLE3=Piece of wish
TTITLE4=GO AHEAD!!
TTITLE5=恋のかけら…
TTITLE6=Turn to you
TTITLE7=Midnight Train
TTITLE8=Wonders
TTITLE9=Magical Eyes(Album Version)
TTITLE10=Depend on you
TTITLE11=Precious Love
TTITLE12=FAKE
TTITLE13=Believe(Dubby Budda“Pumpin Trance”mix)
EXTD=
EXTT0=
EXTT1=
EXTT2=
EXTT3=
EXTT4=
EXTT5=
EXTT6=
EXTT7=
EXTT8=
EXTT9=
EXTT10=
EXTT11=
EXTT12=
EXTT13=
PLAYORDER=
